<svg viewBox="0 0 1400 5200" xmlns="http://www.w3.org/2000/svg">
  <defs>
    <style>
      .stack-frame { fill: #e3f2fd; stroke: #1976d2; stroke-width: 2; }
      .go-frame { fill: #fff3e0; stroke: #f57c00; stroke-width: 2; }
      .back-frame { fill: #f3e5f5; stroke: #7b1fa2; stroke-width: 2; }
      .tree-node { fill: #c8e6c9; stroke: #388e3c; stroke-width: 2; }
      .text { font-family: Arial, sans-serif; font-size: 14px; }
      .small-text { font-family: Arial, sans-serif; font-size: 12px; }
      .title { font-family: Arial, sans-serif; font-size: 16px; font-weight: bold; }
      .step-title { font-family: Arial, sans-serif; font-size: 14px; font-weight: bold; }
      .arrow { fill: #333; }
    </style>
  </defs>

  <!-- タイトル -->
  <text x="700" y="30" text-anchor="middle" class="title">二分木最大深度計算のスタック状態遷移（完全版）</text>
  
  <!-- 凡例 -->
  <rect x="50" y="50" width="100" height="30" class="go-frame"/>
  <text x="160" y="70" class="small-text">"go" フレーム（ノード訪問前）</text>
  
  <rect x="350" y="50" width="100" height="30" class="back-frame"/>
  <text x="460" y="70" class="small-text">"back" フレーム（子ノード処理後）</text>
  
  <text x="750" y="70" class="small-text">← スタックトップ（次にpopされる要素）</text>
  
  <!-- 二分木の表示 -->
  <g transform="translate(1100, 100)">
    <text x="0" y="-20" text-anchor="middle" class="step-title">対象の二分木</text>
    <circle cx="0" cy="0" r="20" class="tree-node"/>
    <text x="0" y="5" text-anchor="middle" class="text">1</text>
    
    <circle cx="-60" cy="60" r="20" class="tree-node"/>
    <text x="-60" y="65" text-anchor="middle" class="text">2</text>
    
    <circle cx="60" cy="60" r="20" class="tree-node"/>
    <text x="60" y="65" text-anchor="middle" class="text">3</text>
    
    <circle cx="-90" cy="120" r="20" class="tree-node"/>
    <text x="-90" y="125" text-anchor="middle" class="text">4</text>
    
    <line x1="0" y1="20" x2="-40" y2="40" stroke="#388e3c" stroke-width="2"/>
    <line x1="0" y1="20" x2="40" y2="40" stroke="#388e3c" stroke-width="2"/>
    <line x1="-60" y1="80" x2="-75" y2="100" stroke="#388e3c" stroke-width="2"/>
  </g>

  <!-- Step 1: 初期状態 -->
  <g transform="translate(50, 250)">
    <text x="0" y="-20" class="step-title">Step 1: 初期状態</text>
    <rect x="0" y="0" width="600" height="50" class="go-frame"/>
    <text x="10" y="20" class="small-text">["go", (node:1, direction:None, depth:[None], left:[None], right:[None])]</text>
    <path d="M 610 25 L 630 25 L 625 15 L 630 25 L 625 35" class="arrow"/>
    <text x="640" y="30" class="small-text">TOP</text>
  </g>

  <!-- Step 2: ルートノード処理 -->
  <g transform="translate(50, 350)">
    <text x="0" y="-20" class="step-title">Step 2: node:1を処理（"go"をpop）</text>
    <rect x="0" y="0" width="600" height="50" class="go-frame"/>
    <text x="10" y="20" class="small-text">["go", (node:3, direction:"right", depth:[None], left:[None], right:[None])]</text>
    
    <rect x="0" y="60" width="600" height="50" class="go-frame"/>
    <text x="10" y="80" class="small-text">["go", (node:2, direction:"left", depth:[None], left:[None], right:[None])]</text>
    
    <rect x="0" y="120" width="600" height="50" class="back-frame"/>
    <text x="10" y="140" class="small-text">["back", (node:1, direction:None, depth:[None], left:[None], right:[None])]</text>
    <path d="M 610 25 L 630 25 L 625 15 L 630 25 L 625 35" class="arrow"/>
    <text x="640" y="30" class="small-text">TOP</text>
  </g>

  <!-- Step 3: node:3を処理 -->
  <g transform="translate(50, 550)">
    <text x="0" y="-20" class="step-title">Step 3: node:3を処理（"go"をpop）</text>
    <rect x="0" y="0" width="600" height="50" class="go-frame"/>
    <text x="10" y="20" class="small-text">["go", (node:None, direction:"right", depth:[None], left:[None], right:[None])]</text>
    
    <rect x="0" y="60" width="600" height="50" class="go-frame"/>
    <text x="10" y="80" class="small-text">["go", (node:None, direction:"left", depth:[None], left:[None], right:[None])]</text>
    
    <rect x="0" y="120" width="600" height="50" class="back-frame"/>
    <text x="10" y="140" class="small-text">["back", (node:3, direction:"right", depth:[None], left:[None], right:[None])]</text>
    
    <rect x="0" y="180" width="600" height="50" class="go-frame"/>
    <text x="10" y="200" class="small-text">["go", (node:2, direction:"left", depth:[None], left:[None], right:[None])]</text>
    
    <rect x="0" y="240" width="600" height="50" class="back-frame"/>
    <text x="10" y="260" class="small-text">["back", (node:1, direction:None, depth:[None], left:[None], right:[None])]</text>
    <path d="M 610 25 L 630 25 L 625 15 L 630 25 L 625 35" class="arrow"/>
    <text x="640" y="30" class="small-text">TOP</text>
  </g>

  <!-- Step 4: Noneノード処理（右） -->
  <g transform="translate(50, 850)">
    <text x="0" y="-20" class="step-title">Step 4: node:Noneを処理（depth=0を設定）</text>
    <rect x="0" y="0" width="600" height="50" class="go-frame"/>
    <text x="10" y="20" class="small-text">["go", (node:None, direction:"left", depth:[None], left:[None], right:[None])]</text>
    
    <rect x="0" y="60" width="600" height="50" class="back-frame"/>
    <text x="10" y="80" class="small-text">["back", (node:3, direction:"right", depth:[None], left:[None], right:[0])]</text>
    <text x="10" y="95" class="small-text" fill="red">← right_depth = 0</text>
    
    <rect x="0" y="120" width="600" height="50" class="go-frame"/>
    <text x="10" y="140" class="small-text">["go", (node:2, direction:"left", depth:[None], left:[None], right:[None])]</text>
    
    <rect x="0" y="180" width="600" height="50" class="back-frame"/>
    <text x="10" y="200" class="small-text">["back", (node:1, direction:None, depth:[None], left:[None], right:[None])]</text>
    <path d="M 610 25 L 630 25 L 625 15 L 630 25 L 625 35" class="arrow"/>
    <text x="640" y="30" class="small-text">TOP</text>
  </g>

  <!-- Step 5: Noneノード処理（左） -->
  <g transform="translate(50, 1120)">
    <text x="0" y="-20" class="step-title">Step 5: node:Noneを処理（depth=0を設定）</text>
    <rect x="0" y="0" width="600" height="50" class="back-frame"/>
    <text x="10" y="20" class="small-text">["back", (node:3, direction:"right", depth:[None], left:[0], right:[0])]</text>
    <text x="10" y="35" class="small-text" fill="red">← left_depth = 0</text>
    
    <rect x="0" y="60" width="600" height="50" class="go-frame"/>
    <text x="10" y="80" class="small-text">["go", (node:2, direction:"left", depth:[None], left:[None], right:[None])]</text>
    
    <rect x="0" y="120" width="600" height="50" class="back-frame"/>
    <text x="10" y="140" class="small-text">["back", (node:1, direction:None, depth:[None], left:[None], right:[None])]</text>
    <path d="M 610 25 L 630 25 L 625 15 L 630 25 L 625 35" class="arrow"/>
    <text x="640" y="30" class="small-text">TOP</text>
  </g>

  <!-- Step 6: node:3のback処理 -->
  <g transform="translate(50, 1350)">
    <text x="0" y="-20" class="step-title">Step 6: node:3のback処理（depth = max(0,0)+1 = 1）</text>
    <rect x="0" y="0" width="600" height="50" class="go-frame"/>
    <text x="10" y="20" class="small-text">["go", (node:2, direction:"left", depth:[None], left:[None], right:[None])]</text>
    
    <rect x="0" y="60" width="600" height="50" class="back-frame"/>
    <text x="10" y="80" class="small-text">["back", (node:1, direction:None, depth:[None], left:[None], right:[1])]</text>
    <text x="10" y="95" class="small-text" fill="red">← right_depth = 1（node:3の深度）</text>
    <path d="M 610 25 L 630 25 L 625 15 L 630 25 L 625 35" class="arrow"/>
    <text x="640" y="30" class="small-text">TOP</text>
  </g>

  <!-- Step 7: node:2のgo処理 -->
  <g transform="translate(50, 1540)">
    <text x="0" y="-20" class="step-title">Step 7: node:2を処理（"go"をpop）</text>
    <rect x="0" y="0" width="600" height="50" class="go-frame"/>
    <text x="10" y="20" class="small-text">["go", (node:None, direction:"right", depth:[None], left:[None], right:[None])]</text>
    
    <rect x="0" y="60" width="600" height="50" class="go-frame"/>
    <text x="10" y="80" class="small-text">["go", (node:4, direction:"left", depth:[None], left:[None], right:[None])]</text>
    
    <rect x="0" y="120" width="600" height="50" class="back-frame"/>
    <text x="10" y="140" class="small-text">["back", (node:2, direction:"left", depth:[None], left:[None], right:[None])]</text>
    
    <rect x="0" y="180" width="600" height="50" class="back-frame"/>
    <text x="10" y="200" class="small-text">["back", (node:1, direction:None, depth:[None], left:[None], right:[1])]</text>
    <path d="M 610 25 L 630 25 L 625 15 L 630 25 L 625 35" class="arrow"/>
    <text x="640" y="30" class="small-text">TOP</text>
  </g>

  <!-- Step 8: Noneノード処理（node:2の右） -->
  <g transform="translate(50, 1790)">
    <text x="0" y="-20" class="step-title">Step 8: node:Noneを処理（depth=0を設定）</text>
    <rect x="0" y="0" width="600" height="50" class="go-frame"/>
    <text x="10" y="20" class="small-text">["go", (node:4, direction:"left", depth:[None], left:[None], right:[None])]</text>
    
    <rect x="0" y="60" width="600" height="50" class="back-frame"/>
    <text x="10" y="80" class="small-text">["back", (node:2, direction:"left", depth:[None], left:[None], right:[0])]</text>
    <text x="10" y="95" class="small-text" fill="red">← right_depth = 0</text>
    
    <rect x="0" y="120" width="600" height="50" class="back-frame"/>
    <text x="10" y="140" class="small-text">["back", (node:1, direction:None, depth:[None], left:[None], right:[1])]</text>
    <path d="M 610 25 L 630 25 L 625 15 L 630 25 L 625 35" class="arrow"/>
    <text x="640" y="30" class="small-text">TOP</text>
  </g>

  <!-- Step 9: node:4のgo処理 -->
  <g transform="translate(50, 1990)">
    <text x="0" y="-20" class="step-title">Step 9: node:4を処理（"go"をpop）</text>
    <rect x="0" y="0" width="600" height="50" class="go-frame"/>
    <text x="10" y="20" class="small-text">["go", (node:None, direction:"right", depth:[None], left:[None], right:[None])]</text>
    
    <rect x="0" y="60" width="600" height="50" class="go-frame"/>
    <text x="10" y="80" class="small-text">["go", (node:None, direction:"left", depth:[None], left:[None], right:[None])]</text>
    
    <rect x="0" y="120" width="600" height="50" class="back-frame"/>
    <text x="10" y="140" class="small-text">["back", (node:4, direction:"left", depth:[None], left:[None], right:[None])]</text>
    
    <rect x="0" y="180" width="600" height="50" class="back-frame"/>
    <text x="10" y="200" class="small-text">["back", (node:2, direction:"left", depth:[None], left:[None], right:[0])]</text>
    
    <rect x="0" y="240" width="600" height="50" class="back-frame"/>
    <text x="10" y="260" class="small-text">["back", (node:1, direction:None, depth:[None], left:[None], right:[1])]</text>
    <path d="M 610 25 L 630 25 L 625 15 L 630 25 L 625 35" class="arrow"/>
    <text x="640" y="30" class="small-text">TOP</text>
  </g>

  <!-- Step 10: Noneノード処理（node:4の右） -->
  <g transform="translate(50, 2290)">
    <text x="0" y="-20" class="step-title">Step 10: node:Noneを処理（depth=0を設定）</text>
    <rect x="0" y="0" width="600" height="50" class="go-frame"/>
    <text x="10" y="20" class="small-text">["go", (node:None, direction:"left", depth:[None], left:[None], right:[None])]</text>
    
    <rect x="0" y="60" width="600" height="50" class="back-frame"/>
    <text x="10" y="80" class="small-text">["back", (node:4, direction:"left", depth:[None], left:[None], right:[0])]</text>
    <text x="10" y="95" class="small-text" fill="red">← right_depth = 0</text>
    
    <rect x="0" y="120" width="600" height="50" class="back-frame"/>
    <text x="10" y="140" class="small-text">["back", (node:2, direction:"left", depth:[None], left:[None], right:[0])]</text>
    
    <rect x="0" y="180" width="600" height="50" class="back-frame"/>
    <text x="10" y="200" class="small-text">["back", (node:1, direction:None, depth:[None], left:[None], right:[1])]</text>
    <path d="M 610 25 L 630 25 L 625 15 L 630 25 L 625 35" class="arrow"/>
    <text x="640" y="30" class="small-text">TOP</text>
  </g>

  <!-- Step 11: Noneノード処理（node:4の左） -->
  <g transform="translate(50, 2540)">
    <text x="0" y="-20" class="step-title">Step 11: node:Noneを処理（depth=0を設定）</text>
    <rect x="0" y="0" width="600" height="50" class="back-frame"/>
    <text x="10" y="20" class="small-text">["back", (node:4, direction:"left", depth:[None], left:[0], right:[0])]</text>
    <text x="10" y="35" class="small-text" fill="red">← left_depth = 0</text>
    
    <rect x="0" y="60" width="600" height="50" class="back-frame"/>
    <text x="10" y="80" class="small-text">["back", (node:2, direction:"left", depth:[None], left:[None], right:[0])]</text>
    
    <rect x="0" y="120" width="600" height="50" class="back-frame"/>
    <text x="10" y="140" class="small-text">["back", (node:1, direction:None, depth:[None], left:[None], right:[1])]</text>
    <path d="M 610 25 L 630 25 L 625 15 L 630 25 L 625 35" class="arrow"/>
    <text x="640" y="30" class="small-text">TOP</text>
  </g>

  <!-- Step 12: node:4のback処理 -->
  <g transform="translate(50, 2760)">
    <text x="0" y="-20" class="step-title">Step 12: node:4のback処理（depth = max(0,0)+1 = 1）</text>
    <rect x="0" y="0" width="600" height="50" class="back-frame"/>
    <text x="10" y="20" class="small-text">["back", (node:2, direction:"left", depth:[None], left:[1], right:[0])]</text>
    <text x="10" y="35" class="small-text" fill="red">← left_depth = 1（node:4の深度）</text>
    
    <rect x="0" y="60" width="600" height="50" class="back-frame"/>
    <text x="10" y="80" class="small-text">["back", (node:1, direction:None, depth:[None], left:[None], right:[1])]</text>
    <path d="M 610 25 L 630 25 L 625 15 L 630 25 L 625 35" class="arrow"/>
    <text x="640" y="30" class="small-text">TOP</text>
  </g>

  <!-- Step 13: node:2のback処理 -->
  <g transform="translate(50, 2940)">
    <text x="0" y="-20" class="step-title">Step 13: node:2のback処理（depth = max(1,0)+1 = 2）</text>
    <rect x="0" y="0" width="600" height="50" class="back-frame"/>
    <text x="10" y="20" class="small-text">["back", (node:1, direction:None, depth:[None], left:[2], right:[1])]</text>
    <text x="10" y="35" class="small-text" fill="red">← left_depth = 2（node:2の深度）</text>
    <path d="M 610 25 L 630 25 L 625 15 L 630 25 L 625 35" class="arrow"/>
    <text x="640" y="30" class="small-text">TOP</text>
  </g>

  <!-- Step 14: node:1のback処理（最終） -->
  <g transform="translate(50, 3100)">
    <text x="0" y="-20" class="step-title">Step 14: node:1のback処理（depth = max(2,1)+1 = 3）</text>
    <text x="10" y="10" class="small-text">スタックは空になる</text>
    <text x="10" y="35" class="small-text">node:1（ルート）の深度 = max(2, 1) + 1 = 3</text>
    <text x="10" y="60" class="small-text">directionがNoneなので、3を返して終了</text>
    
    <rect x="0" y="80" width="200" height="50" fill="#a5d6a7" stroke="#388e3c" stroke-width="2"/>
    <text x="100" y="110" text-anchor="middle" class="text">最大深度: 3</text>
  </g>

  <!-- 処理のまとめ -->
  <g transform="translate(50, 3300)">
    <text x="0" y="0" class="step-title">処理の流れのまとめ：</text>
    <text x="10" y="30" class="small-text">1. 各ノードで "back" → 左の子の "go" → 右の子の "go" の順でpush</text>
    <text x="10" y="55" class="small-text">2. LIFOなので、右→左→自身（back）の順で処理される</text>
    <text x="10" y="80" class="small-text">3. Noneノードは深度0を設定して即座に終了</text>
    <text x="10" y="105" class="small-text">4. "back"処理で子の深度から自身の深度を計算</text>
    <text x="10" y="130" class="small-text">5. リスト参照により、親が子の結果を取得可能</text>
    
    <text x="10" y="170" class="step-title">各ノードの計算結果：</text>
    <text x="10" y="200" class="small-text">• node:4 → 深度1（葉ノード）</text>
    <text x="10" y="225" class="small-text">• node:3 → 深度1（葉ノード）</text>
    <text x="10" y="250" class="small-text">• node:2 → 深度2（左の子:1 + 1）</text>
    <text x="10" y="275" class="small-text">• node:1 → 深度3（左の子:2 + 1）</text>
  </g>
</svg>